<?xml version="1.0" encoding="utf-8" ?>
<svg baseProfile="full" height="200mm" version="1.1" viewBox="0,0,200,200" width="200mm" xmlns="http://www.w3.org/2000/svg" xmlns:ev="http://www.w3.org/2001/xml-events" xmlns:xlink="http://www.w3.org/1999/xlink"><defs /><rect fill="#1a1a1a" height="200" width="200" x="0" y="0" /><text alignment-baseline="middle" fill="#e1ed5e" style="dominant-baseline: central; font-size:9.0px; font-family:Arial;" text-anchor="middle" x="100.0" y="100.0">2021</text><line stroke="#e1ed5e" stroke-width="0.3" x1="100.0" x2="100.0" y1="15.0" y2="10.0" /><path d="M 100.0 14.0 a86.0,86.0 0 0,1 42.46469731375804,11.215312516191453" fill="none" id="id1" stroke="none" /><text fill="#e1ed5e" style="font-size:6.75px; font-family:Arial;" text-anchor="middle"><textPath startOffset="22.20632615414155" xlink:href="#id1">January</textPath></text><path d="M 103.2404852339499 79.25152402106235 l 8.761311928827519 -56.097731350461046 a77.77777777777777,77.77777777777777 0 0,0 1.321002940226388,0.21797680392731603 l -9.725644075192783 55.93860828359411" fill="#41ffcc" stroke="none" /><path d="M 103.95276090670814 79.375362276772 l 11.663084650657318 -60.85541254137648 a82.96296296296296,82.96296296296296 0 0,0 1.4002314687718505,0.28087325994189305 l -12.708882528896293 60.645635325357375" fill="#4be1ff" stroke="none" /><path d="M 104.307194497241 79.44645832069477 l 11.552321043526025 -55.12662876332172 a77.32407407407408,77.32407407407408 0 0,0 1.300359969397658,0.2842083233692174 l -12.49952373707721 54.91960694185663" fill="#40ffc4" stroke="none" /><path d="M 105.36241919743992 79.69619591428918 l 13.55334901476406 -51.31723816601418 a74.07685185185184,74.07685185185184 0 0,0 1.2300359333525335,0.3362152854618179 l -14.434682837340302 51.07633633972607" fill="#39ff8c" stroke="none" /><path d="M 106.0581310904928 79.89281104454417 l 15.94933895120478 -52.93651907099944 a76.28703703703704,76.28703703703704 0 0,0 1.2540667170354465,0.3896446334668929 l -16.858191040950945 52.65413430265003" fill="#3effb3" stroke="none" /><path d="M 106.40334571778207 80.00007090966166 l 18.142812867049198 -56.66646575595865 a80.5,80.5 0 0,0 1.3160491814040665,0.43388072367292785 l -19.115544870695683 56.34577130802648" fill="#46fff7" stroke="none" /><path d="M 107.76421540070413 80.48803036053334 l 21.159883329696765 -53.176139480398334 a78.23148148148148,78.23148148148148 0 0,0 1.2469208932309146,0.5086503406679623 l -22.07208809251607 52.8040282535468" fill="#42ffd3" stroke="none" /><path d="M 109.41281617654863 81.2277094730956 l 26.35007491398025 -52.550825641673725 a79.78703703703704,79.78703703703704 0 0,0 1.222411542525438,0.6261666708034316 l -27.250746944094445 52.0894664455578" fill="#45ffec" stroke="none" /><path d="M 110.05341064243156 81.56283822128135 l 25.598962283969243 -46.946476751366944 a74.47222222222223,74.47222222222223 0 0,0 1.1201895730130567,0.6233842845782509 l -26.403275946054336 46.49887706922851" fill="#3aff93" stroke="none" /><line stroke="#e1ed5e" stroke-width="0.3" x1="143.23703022742887" x2="145.7803849466894" y1="26.81831364943548" y2="22.513508569990506" /><path d="M 143.74570117128098 25.957352633546492 a86.0,86.0 0 0,1 28.547481713284135,27.462654790039103" fill="none" id="id2" stroke="none" /><text fill="#e1ed5e" style="font-size:6.75px; font-family:Arial;" text-anchor="middle"><textPath startOffset="19.985693538727396" xlink:href="#id2">February</textPath></text><path d="M 110.99172775467656 82.1063720568725 l 32.97518326402967 -53.68088382938249 a84.0,84.0 0 0,0 1.225523390510947,0.7674226347082231 l -33.894325806912875 53.10531685335132" fill="#4dd2ff" stroke="none" /><path d="M 112.19680574252982 82.90503203632743 l 33.315349018947195 -46.69458841929083 a78.36111111111111,78.36111111111111 0 0,0 1.0912892361983626,0.792868040452593 l -34.114183571499346 46.11420114402156" fill="#42ffd5" stroke="none" /><line stroke="#e1ed5e" stroke-width="0.3" x1="172.23445277983987" x2="176.4835382374775" y1="55.19839476539836" y2="52.563006222186495" /><path d="M 173.08426987136738 54.67131705675599 a86.0,86.0 0 0,1 12.851231095245387,41.99856678651699" fill="none" id="id3" stroke="none" /><text fill="#e1ed5e" style="font-size:6.75px; font-family:Arial;" text-anchor="middle"><textPath startOffset="22.20632615414155" xlink:href="#id3">March</textPath></text><line stroke="#e1ed5e" stroke-width="0.3" x1="184.98032266829074" x2="189.97916517819016" y1="98.17113171792111" y2="98.06355123074" /><path d="M 185.9800911702706 98.14961562048488 a86.0,86.0 0 0,1 -9.607161424134198,41.387399972396054" fill="none" id="id4" stroke="none" /><text fill="#e1ed5e" style="font-size:6.75px; font-family:Arial;" text-anchor="middle"><textPath startOffset="21.466115282336823" xlink:href="#id4">April</textPath></text><line stroke="#e1ed5e" stroke-width="0.3" x1="174.80103733775053" x2="179.2010983576182" y1="140.37084112569926" y2="142.7455964860345" /><path d="M 175.68104954172406 140.8457921977663 a86.0,86.0 0 0,1 -30.038265399797805,32.042727171017184" fill="none" id="id5" stroke="none" /><text fill="#e1ed5e" style="font-size:6.75px; font-family:Arial;" text-anchor="middle"><textPath startOffset="22.206326154141568" xlink:href="#id5">May</textPath></text><line stroke="#e1ed5e" stroke-width="0.3" x1="143.8653032363475" x2="146.44561519142675" y1="172.8068346515853" y2="177.08958963109032" /><path d="M 144.38136562736335 173.6633856474863 a86.0,86.0 0 0,1 -40.68145358897372,12.25698825130547" fill="none" id="id6" stroke="none" /><text fill="#e1ed5e" style="font-size:6.75px; font-family:Arial;" text-anchor="middle"><textPath startOffset="21.466115282336833" xlink:href="#id6">June</textPath></text><path d="M 107.59598834532513 119.57807347666477 l 19.43541462430411 50.0932805930713 a74.73148148148148,74.73148148148148 0 0,0 -1.2032828255043306,0.4549786037872055 l -18.570261578039503 -50.420407446965136" fill="#3bff98" stroke="none" /><path d="M 105.88484417918355 120.15858648285463 l 9.04522346059694 30.984494038461747 a53.27777777777778,53.27777777777778 0 0,0 -0.8825561105494262,0.2494191724559795 l -8.510536181942909 -31.135602004256246" fill="#ffb110" stroke="none" /><path d="M 105.53697534728816 120.25689768951611 l 8.90359307388003 32.57359165505523 a54.76851851851852,54.76851851851852 0 0,0 -0.9115295550132243,0.24074324024219612 l -8.34157307605531 -32.72202624460101" fill="#ffd013" stroke="none" /><path d="M 104.48393922423573 120.51570834832081 l 5.175905153901735 23.68171272306168 a45.24074074074074,45.24074074074074 0 0,0 -0.7622171602539942,0.1597300168298588 l -4.767496532218363 -23.76729872061808" fill="#ff0000" stroke="none" /><path d="M 104.13013068566511 120.58985236759428 l 6.832561875050916 34.06222490441522 a55.74074074074074,55.74074074074074 0 0,0 -0.9423699119393032,0.18060743648246114 l -6.245224348539908 -34.17478953924614" fill="#ffe315" stroke="none" /><path d="M 102.34483914955558 120.86867818915974 l 6.3397502932428855 56.42272251143188 a77.77777777777777,77.77777777777777 0 0,0 -1.331731123682953,0.13803937608978367 l -5.36758657295433 -56.52349125597742" fill="#41ffcc" stroke="none" /><path d="M 101.98527174616119 120.90594882070398 l 3.1678564591522704 33.35918376637024 a54.50925925925926,54.50925925925926 0 0,0 -0.9348485456153193,0.08066266615322244 l -2.5931635957954096 -33.40877068480213" fill="#ffca12" stroke="none" /><path d="M 100.90346689309514 120.98055641714683 l 1.4778933745074863 34.320045991011796 a55.351851851851855,55.351851851851855 0 0,0 -0.9522617891044659,0.032797821432456506 l -0.886911233728368 -34.34040061087034" fill="#ffdb14" stroke="none" /><line stroke="#e1ed5e" stroke-width="0.3" x1="102.19456741930631" x2="102.32365962044197" y1="184.97166512339345" y2="189.96999836594603" /><path d="M 102.22038585953345 185.97133177190398 a86.0,86.0 0 0,1 -42.740103519485714,-10.115201625700543" fill="none" id="id7" stroke="none" /><text fill="#e1ed5e" style="font-size:6.75px; font-family:Arial;" text-anchor="middle"><textPath startOffset="22.20632615414155" xlink:href="#id7">July</textPath></text><path d="M 98.01472825383883 120.90594882070398 l -3.3026588616693644 34.7787235011094 a55.93518518518518,55.93518518518518 0 0,0 -0.9577366331153486,-0.09927331797122989 l 3.900828091390306 -34.716720814682404" fill="#ffe715" stroke="none" /><path d="M 97.65516085044442 120.86867818915974 l -3.8139821969623218 33.94380680767649 a55.157407407407405,55.157407407407405 0 0,0 -0.9425943301952705,-0.11413504646521094 l 4.397703950208982 -33.87312623248593" fill="#ffd814" stroke="none" /><path d="M 96.58105272829116 120.7198165907248 l -5.751006984818892 34.85277790723771 a56.324074074074076,56.324074074074076 0 0,0 -0.955232233922187,-0.16607936810260998 l 6.350088190213129 -34.74861996061409" fill="#ffef16" stroke="none" /><path d="M 96.22490169976321 120.6578951692458 l -6.14036050686664 33.600959117878205 a55.157407407407405,55.157407407407405 0 0,0 -0.9325079012329861,-0.17871735865880747 l 6.717836022671321 -33.49028456087093" fill="#ffd814" stroke="none" /><path d="M 95.16358092515715 120.4354850818985 l -7.657663535167848 32.35618471300596 a54.25,54.25 0 0,0 -0.9068706810800394,-0.22288674935542263 l 8.213487500991098 -32.21957670533651" fill="#ffc512" stroke="none" /><path d="M 93.08242187328487 119.8279376855182 l -13.130588110894452 37.63636319936324 a60.861111111111114,60.861111111111114 0 0,0 -0.986183125211996,-0.35361018198604827 l 13.776490796736175 -37.40476547633723" fill="#b9ff1f" stroke="none" /><path d="M 92.06813273071674 119.44442032107085 l -13.146335566682437 32.227326272885946 a55.80555555555556,55.80555555555556 0 0,0 -0.8863212141132253,-0.3704823393821083 l 13.699128240293124 -31.996258890483862" fill="#ffe415" stroke="none" /><path d="M 91.40352486487194 119.15986991738527 l -13.87640893725917 30.927814712322522 a54.898148148148145,54.898148148148145 0 0,0 -0.8588475542746782,-0.39425478835505867 l 14.406724487301267 -30.684372853633388" fill="#ffd213" stroke="none" /><line stroke="#e1ed5e" stroke-width="0.3" x1="58.666819895761336" x2="56.23545636021788" y1="174.27360380694188" y2="178.64263932499728" /><path d="M 58.180547188652646 175.14741091055294 a86.0,86.0 0 0,1 -31.652253787137756,-30.449443065178592" fill="none" id="id8" stroke="none" /><text fill="#e1ed5e" style="font-size:6.75px; font-family:Arial;" text-anchor="middle"><textPath startOffset="22.20632615414155" xlink:href="#id8">August</textPath></text><path d="M 89.7882731507175 118.34994917583269 l -16.294638213206944 29.280628777486122 a54.50925925925926,54.50925925925926 0 0,0 -0.8159548982076071,-0.4633204863170171 l 16.796241878335756 -28.99580512537447" fill="#ffca12" stroke="none" /><path d="M 89.1626897886671 117.98757091392108 l -17.058729036357352 28.31376903117207 a54.05555555555556,54.05555555555556 0 0,0 -0.792868355729798,-0.4870445020528785 l 17.54357659201946 -28.015936062290812" fill="#ffc112" stroke="none" /><path d="M 88.54995079064634 117.60387380957326 l -20.673699961333018 31.78477215617394 a58.916666666666664,58.916666666666664 0 0,0 -0.8453848729795516,-0.56027499638269 l 21.217759533052533 -31.42419913869993" fill="#ddff1b" stroke="none" /><path d="M 86.51685102203217 116.09983520530335 l -35.12277079445942 41.939076892827224 a75.7037037037037,75.7037037037037 0 0,0 -0.991842973327154,-0.8452700994431871 l 35.83947924436363 -41.32828240316108" fill="#3dffa9" stroke="none" /><path d="M 84.9287848128048 114.62390073753433 l -41.2132612835029 39.99004954770189 a78.42592592592592,78.42592592592592 0 0,0 -0.9317502247884611,-0.9769363856023915 l 41.89551805967032 -39.27470604551699" fill="#42ffd6" stroke="none" /><path d="M 82.24976979558568 111.22182372390057 l -30.131563618604552 19.049392123905278 a56.648148148148145,56.648148148148145 0 0,0 -0.5139750152166869,-0.8286913777369107 l 30.455003273489197 -18.527904414803103" fill="#fff517" stroke="none" /><line stroke="#e1ed5e" stroke-width="0.3" x1="26.63291911575756" x2="22.317208475507996" y1="142.92168965132927" y2="145.44649492493687" /><path d="M 25.769776987707644 143.4266507060508 a86.0,86.0 0 0,1 -11.730757126820373,-40.83630448921669" fill="none" id="id9" stroke="none" /><text fill="#e1ed5e" style="font-size:6.75px; font-family:Arial;" text-anchor="middle"><textPath startOffset="21.46611528233685" xlink:href="#id9">September</textPath></text><line stroke="#e1ed5e" stroke-width="0.3" x1="15.007084014347285" x2="10.007500721073583" y1="101.09737516637583" y2="101.16192664675087" /><path d="M 14.007167355692545 101.11028546245083 a86.0,86.0 0 0,1 10.666146001902534,-42.60595125391555" fill="none" id="id10" stroke="none" /><text fill="#e1ed5e" style="font-size:6.75px; font-family:Arial;" text-anchor="middle"><textPath startOffset="22.20632615414155" xlink:href="#id10">October</textPath></text><line stroke="#e1ed5e" stroke-width="0.3" x1="26.266209847984243" x2="21.928928074336255" y1="57.711370442889674" y2="55.22380399835377" /><path d="M 25.398753493254645 57.213857153982495 a86.0,86.0 0 0,1 29.58750427330803,-30.492523968695096" fill="none" id="id11" stroke="none" /><text fill="#e1ed5e" style="font-size:6.75px; font-family:Arial;" text-anchor="middle"><textPath startOffset="21.46611528233685" xlink:href="#id11">November</textPath></text><line stroke="#e1ed5e" stroke-width="0.3" x1="56.76296977257108" x2="54.21961505331056" y1="26.818313649435495" y2="22.513508569990535" /><path d="M 56.25429882871898 25.957352633546506 a86.0,86.0 0 0,1 42.26535254187918,-11.944610805530505" fill="none" id="id12" stroke="none" /><text fill="#e1ed5e" style="font-size:6.75px; font-family:Arial;" text-anchor="middle"><textPath startOffset="22.20632615414155" xlink:href="#id12">December</textPath></text></svg>