<?xml version="1.0" encoding="utf-8" ?>
<svg baseProfile="full" height="200mm" version="1.1" viewBox="0,0,200,200" width="200mm" xmlns="http://www.w3.org/2000/svg" xmlns:ev="http://www.w3.org/2001/xml-events" xmlns:xlink="http://www.w3.org/1999/xlink"><defs /><rect fill="#1a1a1a" height="200" width="200" x="0" y="0" /><text alignment-baseline="middle" fill="#e1ed5e" style="dominant-baseline: central; font-size:9.0px; font-family:Arial;" text-anchor="middle" x="100.0" y="100.0">2023</text><line stroke="#e1ed5e" stroke-width="0.3" x1="100.0" x2="100.0" y1="15.0" y2="10.0" /><path d="M 100.0 14.0 a86.0,86.0 0 0,1 42.46469731375804,11.215312516191453" fill="none" id="id25" stroke="none" /><text fill="#e1ed5e" style="font-size:6.75px; font-family:Arial;" text-anchor="middle"><textPath startOffset="22.20632615414155" xlink:href="#id25">January</textPath></text><path d="M 101.80526077348638 79.07773832637324 l 1.5397918565461215 -17.84558143550702 a38.91188811188811,38.91188811188811 0 0,0 0.6668290851878272,0.06332345657667078 l -1.846746068824193 17.816432434415173" fill="#ffbd11" stroke="none" /><line stroke="#e1ed5e" stroke-width="0.3" x1="143.23703022742887" x2="145.7803849466894" y1="26.81831364943548" y2="22.513508569990506" /><path d="M 143.74570117128098 25.957352633546492 a86.0,86.0 0 0,1 28.547481713284135,27.462654790039103" fill="none" id="id26" stroke="none" /><text fill="#e1ed5e" style="font-size:6.75px; font-family:Arial;" text-anchor="middle"><textPath startOffset="19.985693538727396" xlink:href="#id26">February</textPath></text><path d="M 114.42810811169701 84.74124197986012 l 10.542176096798395 -11.149106509420887 a36.344055944055945,36.344055944055945 0 0,0 0.4508683604054372,0.43373500548750066 l -10.732527700816252 10.965988417171085" fill="#ff990e" stroke="none" /><path d="M 115.4437574822437 85.77008943001954 l 19.856259620027608 -18.2955993042606 a48.0,48.0 0 0,0 0.5546431071633471,0.6124507719553165 l -20.16824636780699 17.951095745035737" fill="#cbff1d" stroke="none" /><path d="M 116.60985879189232 87.15038557335679 l 20.081169940008078 -15.5350683108128 a46.38881118881119,46.38881118881119 0 0,0 0.48315948149494525,0.635781242329529 l -20.345605361727138 15.187102292602237" fill="#dfff1b" stroke="none" /><path d="M 116.82858285166822 87.43820079747576 l 20.466650113507367 -15.277456892260753 a46.53986013986014,46.53986013986014 0 0,0 0.47368133906071047,0.6461008141450134 l -20.726594065081706 14.922893634444245" fill="#ddff1b" stroke="none" /><path d="M 117.04232023915458 87.72973835380427 l 20.685733357215604 -14.893474425702122 a46.489510489510494,46.489510489510494 0 0,0 0.4619892452693262,0.6534510242405059 l -20.939035222288812 14.535196901129822" fill="#ddff1b" stroke="none" /><path d="M 117.2510076193507 88.02491185347247 l 23.058789405285946 -16.00666127877506 a49.06993006993007,49.06993006993007 0 0,0 0.47568748731351906,0.6980126908796396 l -23.330901358268196 15.607370564625013" fill="#bdff1f" stroke="none" /><path d="M 117.65298651832404 88.62581576622439 l 23.786561654261206 -15.32617352099555 a49.2965034965035,49.2965034965035 0 0,0 0.4534630512899634,0.7172696477534048 l -24.046852301797124 14.914456225527937" fill="#bbff1f" stroke="none" /><line stroke="#e1ed5e" stroke-width="0.3" x1="172.23445277983987" x2="176.4835382374775" y1="55.19839476539836" y2="52.563006222186495" /><path d="M 173.08426987136738 54.67131705675599 a86.0,86.0 0 0,1 12.851231095245387,41.99856678651699" fill="none" id="id27" stroke="none" /><text fill="#e1ed5e" style="font-size:6.75px; font-family:Arial;" text-anchor="middle"><textPath startOffset="22.20632615414155" xlink:href="#id27">March</textPath></text><path d="M 118.03404312379186 89.2402003453031 l 37.62827419415753 -22.450467091708237 a64.81678321678322,64.81678321678322 0 0,0 0.5634131765799041,0.9630557518395655 l -38.009147045207754 21.799431927514775" fill="#34ff57" stroke="none" /><path d="M 118.3937258080291 89.86733742301442 l 22.80013484775475 -12.560047677845871 a47.03076923076923,47.03076923076923 0 0,0 0.3845143887832623,0.7124467648004935 l -23.01295733575648 12.16571992971292" fill="#d7ff1c" stroke="none" /><path d="M 118.56541770881063 90.18545643968196 l 24.348332036090515 -12.871661124860672 a48.541258741258744,48.541258741258744 0 0,0 0.3841475859681546,0.7420508643696445 l -24.566289055218785 12.450637538230684" fill="#c4ff1e" stroke="none" /><path d="M 118.73160827565052 90.50648371742162 l 25.08276496771424 -12.712396828339735 a49.12027972027972,49.12027972027972 0 0,0 0.3757467189519383,0.7574824570315273 l -25.297871699619588 12.278754782809258" fill="#bdff1f" stroke="none" /><path d="M 118.89224826269711 90.83032412892265 l 16.578372501451693 -8.046596688465872 a39.42797202797203,39.42797202797203 0 0,0 0.29109447601778565,0.6131192048403282 l -16.714425171311238 7.760035067985004" fill="#ffc412" stroke="none" /><path d="M 119.04729006885535 91.15688171328212 l 36.671266154543495 -17.02543213003267 a61.43076923076923,61.43076923076923 0 0,0 0.4370292662017256,0.9629360576510207 l -36.95889773770857 16.391674063539586" fill="#32ff2f" stroke="none" /><path d="M 119.196687751892 91.48605970444005 l 4.611807662912078 -2.0453869753009544 a26.045034965034965,26.045034965034965 0 0,0 0.17823397556893977,0.41138858938923517 l -4.646332348323698 1.9656992413251166" fill="#ff0000" stroke="none" /><path d="M 119.34039704204932 91.81776055985345 l 15.997850899916928 -6.768126130311031 a38.37062937062937,38.37062937062937 0 0,0 0.25211022446068426,0.6105049057351735 l -16.11198281126381 6.491746654122554" fill="#ffb510" stroke="none" /><path d="M 119.47837535516314 92.15188598940014 l 27.156863781883775 -10.941886027165983 a50.278321678321674,50.278321678321674 0 0,0 0.3165294489046121,0.8055329219448183 l -27.34118678067009 10.472804100325382" fill="#afff20" stroke="none" /><path d="M 119.61058180528143 92.48833698450437 l 32.61899970608749 -12.494424496303928 a55.93006993006993,55.93006993006993 0 0,0 0.33663353352114594,0.902010506173624 l -32.829237828110266 11.931090853100972" fill="#6dff28" stroke="none" /><path d="M 119.85752413597 93.16781622104841 l 15.925694681675031 -5.479397740002327 a37.84195804195804,37.84195804195804 0 0,0 0.2066219675269542,0.6177733835651648 l -16.017653942973755 5.204451253514848" fill="#ffae10" stroke="none" /><path d="M 120.08093135843002 93.85539295169968 l 14.186245174253122 -4.340879440835217 a35.83552447552448,35.83552447552448 0 0,0 0.1754133614282464,0.5914066520829646 l -14.258864432793072 4.096043402005723" fill="#ff920d" stroke="none" /><path d="M 120.28053869075195 94.5502522615342 l 12.083230045119345 -3.2469825686523492 a33.51188811188811,33.51188811188811 0 0,0 0.14490487459578272,0.5583775922360303 l -12.137331251585431 3.0385085508674687" fill="#ff710a" stroke="none" /><path d="M 120.37134235888165 94.90015583598534 l 52.053765719827645 -13.031350052664 a74.66013986013985,74.66013986013985 0 0,0 0.30136814228950626,1.2493655120584468 l -52.270366662377974 12.133399308946148" fill="#41ffcb" stroke="none" /><path d="M 120.6074358757038 95.95851677861258 l 13.896123093007054 -2.725275898537977 a35.16083916083916,35.16083916083916 0 0,0 0.11136656016690892,0.5949246175551895 l -13.940975377083822 2.4856732035202245" fill="#ff880c" stroke="none" /><path d="M 120.67395015179393 96.31383870115 l 28.204142185104693 -5.028793076632916 a49.64895104895105,49.64895104895105 0 0,0 0.14277179672951068,0.8426472261455938 l -28.28652584335443 4.542560062171486" fill="#b6ff1f" stroke="none" /><path d="M 120.73433829027371 96.67025291283417 l 17.48644194270636 -2.8081643266587344 a38.71048951048951,38.71048951048951 0 0,0 0.09999123419161222,0.6588173005136153 l -17.532189070337274 2.5067479137530366" fill="#ffba11" stroke="none" /><path d="M 120.87857604477298 97.74499172005257 l 19.29756099562834 -2.0842494111961654 a40.40979020979021,40.40979020979021 0 0,0 0.06874065985104008,0.6922090636934239 l -19.33057878116161 1.7517648167983066" fill="#ffd113" stroke="none" /><path d="M 120.96714384426684 98.82574320788733 l 20.27173008239906 -1.1353104129936469 a41.303496503496504,41.303496503496504 0 0,0 0.03364541869120094,0.7102016116689691 l -20.288269109323757 0.7861976947016781" fill="#ffdd14" stroke="none" /><line stroke="#e1ed5e" stroke-width="0.3" x1="184.98032266829074" x2="189.97916517819016" y1="98.17113171792111" y2="98.06355123074" /><path d="M 185.9800911702706 98.14961562048488 a86.0,86.0 0 0,1 -9.607161424134198,41.387399972396054" fill="none" id="id28" stroke="none" /><text fill="#e1ed5e" style="font-size:6.75px; font-family:Arial;" text-anchor="middle"><textPath startOffset="21.466115282336823" xlink:href="#id28">April</textPath></text><path d="M 120.99513854157772 99.54816195383933 l 27.748819471036278 -0.5971845505200429 a48.75524475524476,48.75524475524476 0 0,0 0.010835256202226832,0.839202533733751 l -27.75498773435622 0.11944575872582926" fill="#c1ff1e" stroke="none" /><path d="M 120.99980553446 99.90962569577887 l 27.830511510504127 -0.1197707811985526 a48.830769230769235,48.830769230769235 0 0,0 -0.0036174361927600266,0.8405647737593442 l -27.828449777021863 -0.3593034707644763" fill="#c0ff1e" stroke="none" /><path d="M 120.99824983174949 100.27111621757518 l 28.23121341015832 0.3645037019107736 a49.23356643356644,49.23356643356644 0 0,0 -0.018235028262561945,0.847310110193565 l -28.220756319210746 -0.8504036278944533" fill="#bbff1f" stroke="none" /><path d="M 120.9904718944345 100.63252640178507 l 28.145266110599394 0.8481288076682534 a49.15804195804196,49.15804195804196 0 0,0 -0.032767035267792885,0.8455715832135673 l -28.1264969424804 -1.3324776378958267" fill="#bcff1f" stroke="none" /><path d="M 120.9764740272857 100.99374915477107 l 12.847409287360957 0.6086390927143296 a33.86181818181818,33.86181818181818 0 0,0 -0.032593852906550154,0.5819851389583616 l -12.835029083566878 -0.8296959480081144" fill="#ff760a" stroke="none" /><path d="M 120.95626037817324 101.35467743843564 l 27.885852970755998 1.802627720275998 a48.94405594405595,48.94405594405595 0 0,0 -0.06158430433176844,0.8402689036493857 l -27.85069210775989 -2.282369760422154" fill="#bfff1e" stroke="none" /><path d="M 120.92983693683757 101.71520430193887 l 33.747009806249594 2.765574169160177 a54.86013986013986,54.86013986013986 0 0,0 -0.08523020053491308,0.9405081607847033 l -33.6944050094376 -3.346063718493451" fill="#79ff26" stroke="none" /><path d="M 120.89721153311464 102.0752229133903 l 28.408516937325086 2.8211421983431766 a49.548251748251744,49.548251748251744 0 0,0 -0.0915880522625531,0.8479916153571424 l -28.35574658356148 -3.3097301355851108" fill="#b8ff1f" stroke="none" /><path d="M 120.81339534386255 102.79330883721812 l 37.75104953678006 5.066465059793414 a59.08951048951049,59.08951048951049 0 0,0 -0.14397004186477588,1.0069261374824965 l -37.658245443898686 -5.71553666925632" fill="#4bff2c" stroke="none" /><path d="M 120.76222939487914 103.15116336523771 l 27.826780175993868 4.2233773934094945 a49.14545454545454,49.14545454545454 0 0,0 -0.1341395826505951,0.8352873092114865 l -27.749958838981986 -4.701743932314185" fill="#bcff1f" stroke="none" /><path d="M 120.70491114924044 103.5080841355445 l 19.918910526192345 3.3749101124169356 a41.2027972027972,41.2027972027972 0 0,0 -0.12449828895687648,0.6982525210389202 l -19.85786579489628 -3.717281384189074" fill="#ffdc14" stroke="none" /><path d="M 120.64145759157962 103.86396538481128 l 24.93059163658318 4.666867282953884 a46.36363636363636,46.36363636363636 0 0,0 -0.15359625187191037,0.783183979200641 l -24.846565451735607 -5.09531498922247" fill="#dfff1b" stroke="none" /><path d="M 120.5718875245553 104.21870165774334 l 14.969593279606466 3.0698324550452005 a36.28111888111888,36.28111888111888 0 0,0 -0.1307259874425056,0.6107082924092679 l -14.914533253439517 -3.3270545668706375" fill="#ff980e" stroke="none" /><path d="M 120.41448212921028 104.9243191809786 l 25.160594298151167 6.069161898058863 a46.882237762237764,46.882237762237764 0 0,0 -0.19598714457396763,0.7828712195223291 l -25.052395839282138 -6.501360956978588" fill="#d8ff1c" stroke="none" /><path d="M 120.32669344350535 105.2749913415812 l 14.486576526070644 3.759419403680352 a35.966433566433565,35.966433566433565 0 0,0 -0.1606704914282289,0.5979146694943457 l -14.419717958300637 -4.008225006350246" fill="#ff940d" stroke="none" /><path d="M 120.23288151984713 105.62410040840565 l 31.640911819349338 8.795171607710506 a53.84055944055944,53.84055944055944 0 0,0 -0.25588972696854595,0.8907857091558848 l -31.484829455494694 -9.338514792370972" fill="#85ff25" stroke="none" /><path d="M 120.13307415673323 105.97154293290107 l 31.62964277610257 9.381466949330902 a53.991608391608395,53.991608391608395 0 0,0 -0.27194603224597097,0.8887353680719539 l -31.463469971350467 -9.924529289954913" fill="#83ff25" stroke="none" /><path d="M 120.02730092923936 106.31721596034902 l 24.668993052699427 7.781345933177163 a46.86713286713287,46.86713286713287 0 0,0 -0.24930580542427996,0.7672843730765289 l -24.5313949962589 -8.204829206231487" fill="#d9ff1c" stroke="none" /><path d="M 119.79798401119884 107.00284435728193 l 24.9086723913125 8.810571611948905 a47.42097902097902,47.42097902097902 0 0,0 -0.2788257346890964,0.7672086709763648 l -24.753322395618174 -9.2380280799314" fill="#d2ff1c" stroke="none" /><path d="M 119.67450827220406 107.3425965602758 l 28.43271095561478 10.61118899509986 a51.34825174825175,51.34825174825175 0 0,0 -0.31617250875817465,0.825426651168029 l -28.2458441672631 -11.099039213101033" fill="#a2ff22" stroke="none" /><path d="M 119.54520255179757 107.68017299344265 l 24.075159586779623 9.460193107806978 a46.86713286713287,46.86713286713287 0 0,0 -0.30150605369529515,0.7483132989402144 l -23.908750918826936 -9.873205774590007" fill="#d9ff1c" stroke="none" /><path d="M 119.41010516605496 108.01547362559984 l 37.87006532398136 15.638581409387092 a61.97202797202797,61.97202797202797 0 0,0 -0.41565234920870386,0.9824793718103427 l -37.59526199358034 -16.288135306863598" fill="#30ff33" stroke="none" /><path d="M 119.26925614724726 108.34839909993367 l 14.125654506343706 6.119935324207122 a36.3944055944056,36.3944055944056 0 0,0 -0.25399640979838944,0.572694851001484 l -14.018217011814043 -6.362178511701294" fill="#ff9a0e" stroke="none" /><path d="M 119.12269723197855 108.67885076344098 l 20.666267597956427 9.379401354535919 a43.69510489510489,43.69510489510489 0 0,0 -0.31673828975624296,0.6822260977738777 l -20.501754691360354 -9.733747519588627" fill="#fffd17" stroke="none" /><path d="M 118.97047184881838 109.00673069616215 l 31.98637601042523 15.186373695287196 a56.40839160839161,56.40839160839161 0 0,0 -0.42399432928507114,0.8735539012992681 l -31.720228424525445 -15.73471655255174" fill="#68ff28" stroke="none" /><path d="M 118.64920377521936 109.65438752849418 l 47.653280136119946 24.669323097285133 a74.66013986013985,74.66013986013985 0 0,0 -0.6006496840452052,1.136202841469995 l -47.221577943849844 -25.48594095384126" fill="#41ffcb" stroke="none" /><line stroke="#e1ed5e" stroke-width="0.3" x1="174.80103733775053" x2="179.2010983576182" y1="140.37084112569926" y2="142.7455964860345" /><path d="M 175.68104954172406 140.8457921977663 a86.0,86.0 0 0,1 -30.038265399797805,32.042727171017184" fill="none" id="id29" stroke="none" /><text fill="#e1ed5e" style="font-size:6.75px; font-family:Arial;" text-anchor="middle"><textPath startOffset="22.206326154141568" xlink:href="#id29">May</textPath></text><path d="M 118.12598468904814 110.60418214915192 l 35.82100190996507 20.956236890561783 a62.5006993006993,62.5006993006993 0 0,0 -0.5512535615582832,0.9239326772173013 l -35.45496747270855 -21.56973166166519" fill="#30ff3a" stroke="none" /><path d="M 117.94076556474637 110.91462005526583 l 22.31393918892031 13.57512684196399 a47.11888111888112,47.11888111888112 0 0,0 -0.427514904401354,0.6892901496039917 l -22.07695964485099 -13.957213322933253" fill="#d6ff1c" stroke="none" /><path d="M 117.75023020441432 111.22182372390056 l 29.843793640388927 18.867461865459166 a56.30769230769231,56.30769230769231 0 0,0 -0.5249891575384584,0.8147948309798404 l -29.51459961947342 -19.378378296360463" fill="#69ff28" stroke="none" /><path d="M 117.55443506779139 111.5257021239791 l 18.971416439896814 12.456048509211374 a43.69510489510489,43.69510489510489 0 0,0 -0.4182181139366135,0.625179335756389 l -18.75419522054948 -12.78076475917357" fill="#fffd17" stroke="none" /><path d="M 116.93607887273984 112.41649034213515 l 16.6586046534462 12.21306332753872 a41.655944055944055,41.655944055944055 0 0,0 -0.42893469415606916,0.5746281183279761 l -16.445908692595037 -12.49800432537601" fill="#ffe215" stroke="none" /><path d="M 116.27256486870786 113.27417163493432 l 16.025468978593608 13.072605791926327 a41.68111888111888,41.68111888111888 0 0,0 -0.4583017656458621,0.5520540003659947 l -15.7980712130542 -13.34652104940609" fill="#ffe215" stroke="none" /><path d="M 115.80600337817218 113.82643327865902 l 21.601011609729813 18.8956650601454 a49.6993006993007,49.6993006993007 0 0,0 -0.5687993857973004,0.6390521397441432 l -21.27255337428418 -19.26469136963041" fill="#b6ff1f" stroke="none" /><path d="M 115.56566222782051 114.09645910891815 l 32.60858510663298 29.530744007393977 a64.99300699300699,64.99300699300699 0 0,0 -0.7581081199093367,0.8227766359894753 l -32.095430578727914 -30.087671898184787" fill="#34ff5a" stroke="none" /><path d="M 115.07121518719521 114.62390073753431 l 26.712637347773953 25.919804883649736 a58.22097902097902,58.22097902097902 0 0,0 -0.7040839733725052,0.7132333477571023 l -26.262512749345913 -26.3757787253875" fill="#54ff2b" stroke="none" /><path d="M 114.55890576462653 115.13401014063108 l 24.72250551319898 25.699091345699006 a56.66013986013986,56.66013986013986 0 0,0 -0.7086946837935132,0.6701150580185967 l -24.276474995014656 -26.120841040463525" fill="#65ff29" stroke="none" /><path d="M 114.29624159901734 115.38237550388516 l 28.52678618369354 30.694062768691524 a62.903496503496505,62.903496503496505 0 0,0 -0.7994748360425127,0.7303013073594302 l -27.994211798184164 -31.180556842637536" fill="#31ff3f" stroke="none" /><path d="M 113.75828350139079 115.86535959552629 l 23.11556562701202 26.655706061694413 a56.282517482517484,56.282517482517484 0 0,0 -0.7373935059331644,0.6284227431667115 l -22.65330664450181 -27.049653195084073" fill="#69ff28" stroke="none" /><path d="M 113.48314897796784 116.09983520530334 l 17.860794750035314 21.32705442780442 a48.81818181818181,48.81818181818181 0 0,0 -0.6488863245519517,0.5339892691501956 l -17.491038296938672 -21.631338815811795" fill="#c0ff1e" stroke="none" /><path d="M 113.20401910651253 116.32954008644616 l 22.20016399226832 27.455160804684205 a56.30769230769231,56.30769230769231 0 0,0 -0.7589271623842454,0.6029376371730688 l -21.72427933716672 -27.8332323558624" fill="#69ff28" stroke="none" /><path d="M 112.92097659922987 116.55440617244103 l 15.512916760194274 19.87521012791172 a46.21258741258741,46.21258741258741 0 0,0 -0.6312887481264056,0.484045292530136 l -15.168499283574375 -20.13929476226923" fill="#e1ff1b" stroke="none" /><path d="M 112.63410532772338 116.77436683061366 l 21.226811528636535 28.182947188537522 a56.282517482517484,56.282517482517484 0 0,0 -0.7788831182428329,0.5761991104105371 l -20.73854343997514 -28.54415624768783" fill="#69ff28" stroke="none" /><path d="M 112.34349029814194 116.9893568818739 l 26.83506851829819 36.93530314319078 a66.65454545454546,66.65454545454546 0 0,0 -0.9340291048536702,0.6664049663022443 l -26.195312085595635 -37.39175237133724" fill="#36ff6e" stroke="none" /><path d="M 111.7513745106137 117.40417183066458 l 14.897596657311484 22.063830222890466 a47.62237762237763,47.62237762237763 0 0,0 -0.68332510875153,0.452870621501206 l -14.51559684981999 -22.31699886548299" fill="#cfff1d" stroke="none" /><path d="M 111.45004920935366 117.60387380957326 l 19.251181637704523 29.59772189961219 a56.30769230769231,56.30769230769231 0 0,0 -0.8170465967093293,0.5214777952416554 l -18.738853238948263 -29.924714123677653" fill="#69ff28" stroke="none" /><line stroke="#e1ed5e" stroke-width="0.3" x1="143.8653032363475" x2="146.44561519142675" y1="172.8068346515853" y2="177.08958963109032" /><path d="M 144.38136562736335 173.6633856474863 a86.0,86.0 0 0,1 -40.68145358897372,12.25698825130547" fill="none" id="id30" stroke="none" /><text fill="#e1ed5e" style="font-size:6.75px; font-family:Arial;" text-anchor="middle"><textPath startOffset="21.466115282336833" xlink:href="#id30">June</textPath></text><path d="M 110.8373102113329 117.98757091392108 l 14.180528386417427 23.53658379925457 a48.47832167832168,48.47832167832168 0 0,0 -0.7184767269007138,0.42448871442917446 l -13.77328378848833 -23.777191085977492" fill="#c5ff1e" stroke="none" /><path d="M 110.21172684928248 118.3499491758327 l 26.66882750189239 47.92251462084099 a75.84335664335664,75.84335664335664 0 0,0 -1.1462357747576992,0.6250191366214563 l -25.83996891526604 -48.37447440922222" fill="#42ffd8" stroke="none" /><path d="M 109.89434966115114 118.52300852407294 l 13.468572276008532 25.21423717772404 a49.58601398601398,49.58601398601398 0 0,0 -0.756326256531843,0.39567415123103633 l -13.032555116950192 -25.442340747899795" fill="#b7ff1f" stroke="none" /><path d="M 109.2508944713604 118.85261126421891 l 5.994136018106246 12.21558807789449 a34.60699300699301,34.60699300699301 0 0,0 -0.5370466961706455,0.25781505043588987 l -5.782976653935369 -12.31695740482994" fill="#ff800b" stroke="none" /><path d="M 108.59647513512805 119.15986991738527 l 7.260199879357895 16.18157245570181 a38.73566433566434,38.73566433566434 0 0,0 -0.6106941721397837,0.26771037841870043 l -6.980585032560358 -16.304147387414968" fill="#ffba11" stroke="none" /><path d="M 107.93186726928326 119.44442032107085 l 5.0824172492690165 12.45919200193291 a34.45594405594406,34.45594405594406 0 0,0 -0.5510964482605784,0.21929265009737509 l -4.867199724966572 -12.544831496436354" fill="#ff7e0b" stroke="none" /><path d="M 107.59598834532513 119.57807347666477 l 10.758833442559409 27.730062512702617 a50.744055944055944,50.744055944055944 0 0,0 -0.817051258766281,0.3089388737683129 l -10.279911963032852 -27.911149636577562" fill="#a9ff21" stroke="none" /><path d="M 107.2578585660854 119.70592522655815 l 4.389518057850252 11.918049083075225 a33.7006993006993,33.7006993006993 0 0,0 -0.546080417387007,0.1958050090643437 l -4.18371807983351 -11.991841633179527" fill="#ff730a" stroke="none" /><path d="M 106.91757812671514 119.82793768551818 l 8.338411356338149 23.90048912222402 a46.313286713286715,46.313286713286715 0 0,0 -0.7549733242435342,0.2561279421815221 l -7.9257682991573875 -24.040480051303664" fill="#e0ff1b" stroke="none" /><path d="M 106.57524785965236 119.94407469862006 l 4.7294490099397635 14.345388394611835 a36.10489510489511,36.10489510489511 0 0,0 -0.5919116534450466,0.18951141947916583 l -4.481816011403777 -14.424672660750707" fill="#ff960d" stroke="none" /><path d="M 106.2309692047433 120.05430185196036 l 4.366035764442511 14.05203528368131 a35.71468531468531,35.71468531468531 0 0,0 -0.5886545889240015,0.17735679883557717 l -4.123506201078264 -14.125107451622613" fill="#ff900d" stroke="none" /><path d="M 105.88484417918355 120.15858648285463 l 7.220545075797439 24.734041876365687 a46.76643356643356,46.76643356643356 0 0,0 -0.7746945055556571,0.21893640548428905 l -6.793719402137176 -24.854667075188495" fill="#daff1c" stroke="none" /><path d="M 105.53697534728816 120.25689768951611 l 8.419963909732301 30.804245417563862 a52.934265734265736,52.934265734265736 0 0,0 -0.8810015131848449,0.23268050693026665 l -7.888471953735959 -30.944617273797714" fill="#8fff24" stroke="none" /><path d="M 105.18746579009965 120.34920634021253 l 13.758962710004576 53.97316966360066 a76.6993006993007,76.6993006993007 0 0,0 -1.2821446463324875,0.3151199596442622 l -12.827864778928879 -54.20201088155895" fill="#43ffe2" stroke="none" /><path d="M 104.48393922423573 120.51570834832081 l 5.388790096658922 24.655741401628312 a46.23776223776224,46.23776223776224 0 0,0 -0.7790150040056453,0.16325016831039285 l -4.963583631223899 -24.744847550665245" fill="#e1ff1b" stroke="none" /><path d="M 103.7750983002368 120.6578951692458 l 4.536906348836047 24.82662126733537 a46.23776223776224,46.23776223776224 0 0,0 -0.7841726941814205,0.13633847446523714 l -4.108884683182577 -24.901038320321614" fill="#e1ff1b" stroke="none" /><path d="M 102.70371172650421 120.8252237178851 l 7.702742359285415 59.330042955709 a80.82797202797204,80.82797202797204 0 0,0 -1.381282981486156,0.1672541327941738 l -6.68033195474788 -59.453842617228524" fill="#49f1ff" stroke="none" /><path d="M 102.34483914955558 120.86867818915974 l 2.8180234734419307 25.079939921637532 a46.23776223776224,46.23776223776224 0 0,0 -0.7916948622190327,0.08206240951399449 l -2.3858960146172956 -25.124731699607285" fill="#e1ff1b" stroke="none" /><path d="M 101.98527174616119 120.90594882070398 l 2.538212568168923 26.728704596140815 a47.84895104895105,47.84895104895105 0 0,0 -0.8206224576374543,0.07080675864418032 l -2.077745792789927 -26.768435607063658" fill="#ccff1d" stroke="none" /><path d="M 101.62511606390274 120.93702456842531 l 1.173785129072603 15.122346416554947 a36.16783216783217,36.16783216783217 0 0,0 -0.6211174829341899,0.04283589815576861 l -0.9133048853594826 -15.140310659227001" fill="#ff970d" stroke="none" /><path d="M 101.26447882468166 120.96189622390904 l 1.2164766315369042 20.166139923700694 a41.2027972027972,41.2027972027972 0 0,0 -0.7083191145214046,0.03661200751152396 l -0.86916944860202 -20.18409173797442" fill="#ffdc14" stroke="none" /><line stroke="#e1ed5e" stroke-width="0.3" x1="102.19456741930631" x2="102.32365962044197" y1="184.97166512339345" y2="189.96999836594603" /><path d="M 102.22038585953345 185.97133177190398 a86.0,86.0 0 0,1 -42.740103519485714,-10.115201625700543" fill="none" id="id31" stroke="none" /><text fill="#e1ed5e" style="font-size:6.75px; font-family:Arial;" text-anchor="middle"><textPath startOffset="22.20632615414155" xlink:href="#id31">July</textPath></text><path d="M 100.54218724476979 120.99299961872073 l 0.9934863579987587 38.46689300764993 a59.47972027972028,59.47972027972028 0 0,0 -1.023731835380927,0.017624471946180352 l -0.33119483272516387 -38.47829495687527" fill="#46ff2c" stroke="none" /><path d="M 99.81925306533755 120.99922214144158 l -0.5238230344213409 60.85788554677524 a81.86013986013987,81.86013986013987 0 0,0 -1.4089311588799298,-0.02425602762908992 l 1.5713138831939386 -60.839852041867" fill="#4ae7ff" stroke="none" /><path d="M 99.45781275523022 120.99299961872073 l -0.6515996558022434 25.229349192128918 a46.23776223776224,46.23776223776224 0 0,0 -0.7954648800290577,-0.02739741885003926 l 1.0857848875059442 -25.214394974852787" fill="#e1ff1b" stroke="none" /><path d="M 98.73552117531835 120.96189622390904 l -1.224055925191326 20.291785655312545 a41.328671328671334,41.328671328671334 0 0,0 -0.709745615649858,-0.048948213089828406 l 1.5731643016201142 -20.26770909770643" fill="#ffde14" stroke="none" /><path d="M 98.01472825383883 120.90594882070398 l -1.762350123515306 18.558467654423133 a39.64195804195804,39.64195804195804 0 0,0 -0.6787598056484224,-0.07035622913685766 l 2.0815425257693216 -18.525382056830516" fill="#ffc712" stroke="none" /><path d="M 97.65516085044442 120.86867818915974 l -5.941040011091777 52.87426735599094 a74.206993006993,74.206993006993 0 0,0 -1.2681359432393862,-0.15355360219050646 l 6.850303377382553 -52.76416822507508" fill="#40ffc6" stroke="none" /><path d="M 96.93821686468263 120.77559828337769 l -4.369693693420963 29.650369338295075 a50.97062937062937,50.97062937062937 0 0,0 -0.8668990866900567,-0.13539180866081102 l 4.879428643719537 -29.57075922228716" fill="#a6ff21" stroke="none" /><path d="M 96.22490169976321 120.6578951692458 l -9.591993023798466 52.48880177168809 a74.35804195804195,74.35804195804195 0 0,0 -1.257119667244839,-0.24092997619749204 l 10.494080305615 -52.31591459714213" fill="#40ffc8" stroke="none" /><path d="M 95.86986931433489 120.58985236759428 l -5.830044614230556 29.064396998412295 a50.64335664335664,50.64335664335664 0 0,0 -0.8532405715379223,-0.1788048576684611 l 6.329476647197865 -28.959736160017293" fill="#aaff21" stroke="none" /><path d="M 95.51606077576429 120.51570834832081 l -1.6529206530898883 7.562733646883496 a28.74125874125874,28.74125874125874 0 0,0 -0.4824149803514267,-0.1097960789196495 l 1.7828557828341776 -7.53316083438616" fill="#ff2a04" stroke="none" /><path d="M 95.16358092515715 120.4354850818985 l -14.509257224528554 61.30645524569551 a84.0,84.0 0 0,0 -1.4041868610271577,-0.3451149667438802 l 15.562397370298923 -61.0476190206376" fill="#4dd2ff" stroke="none" /><path d="M 94.11515582081647 120.15858648285463 l -7.693213879000577 26.35317309836521 a48.453146853146855,48.453146853146855 0 0,0 -0.7986117472855228,-0.24061516834507113 l 8.145700600726345 -26.216842560914415" fill="#c5ff1e" stroke="none" /><path d="M 93.76903079525671 120.05430185196036 l -8.41460956141057 27.082322920559456 a49.35944055944056,49.35944055944056 0 0,0 -0.809209609660375,-0.25908336301602636 l 8.879540516161885 -26.93346671088372" fill="#baff1f" stroke="none" /><path d="M 93.42475214034765 119.94407469862007 l -10.93685083548568 33.173710662539875 a55.93006993006993,55.93006993006993 0 0,0 -0.9117407512381179,-0.30931196496463936 l 11.506261319661023 -32.98053571067712" fill="#6dff28" stroke="none" /><path d="M 93.08242187328487 119.8279376855182 l -8.321825754435919 23.852949611289716 a46.26293706293706,46.26293706293706 0 0,0 -0.7496367881112156,-0.2687930814172678 l 8.73118210317686 -23.706168988832488" fill="#e0ff1b" stroke="none" /><path d="M 91.7346041902142 119.30500536409082 l -9.943246387756298 23.223863595842325 a46.26293706293706,46.26293706293706 0 0,0 -0.7293667614832612,-0.31973295412095304 l 10.341533823897302 -23.04926608842692" fill="#e0ff1b" stroke="none" /><line stroke="#e1ed5e" stroke-width="0.3" x1="58.666819895761336" x2="56.23545636021788" y1="174.27360380694188" y2="178.64263932499728" /><path d="M 58.180547188652646 175.14741091055294 a86.0,86.0 0 0,1 -31.652253787137756,-30.449443065178592" fill="none" id="id32" stroke="none" /><text fill="#e1ed5e" style="font-size:6.75px; font-family:Arial;" text-anchor="middle"><textPath startOffset="22.20632615414155" xlink:href="#id32">August</textPath></text><path d="M 88.8546689885994 117.79835938074946 l -13.394438767946971 21.390036298742853 a46.23776223776224,46.23776223776224 0 0,0 -0.6709279803082724,-0.42821798089144414 l 13.760648550302168 -21.156303889027605" fill="#e1ff1b" stroke="none" /><path d="M 86.79598089348748 116.32954008644616 l -17.514781787839492 21.660702624159057 a48.85594405594406,48.85594405594406 0 0,0 -0.64938825638874,-0.5344023248805171 l 17.88504017277292 -21.35600518042136" fill="#c0ff1e" stroke="none" /><path d="M 86.51685102203217 116.09983520530335 l -16.22018781145741 19.368053500725562 a46.26293706293706,46.26293706293706 0 0,0 -0.6061205305217531,-0.5165490656147327 l 16.55117381855622 -19.085980044887876" fill="#e0ff1b" stroke="none" /><path d="M 85.44109423537348 115.13401014063109 l -17.671399104916308 18.369452867998778 a46.489510489510494,46.489510489510494 0 0,0 -0.5719317737614785,-0.5597556163072784 l 17.98498083105358 -18.06254714876893" fill="#ddff1b" stroke="none" /><path d="M 85.18274418774928 114.88116024355367 l -18.304713823605642 18.383659098080376 a46.94265734265734,46.94265734265734 0 0,0 -0.5676918055701686,-0.5750688018669977 l 18.618446254231344 -18.065849802232712" fill="#d8ff1c" stroke="none" /><path d="M 84.9287848128048 114.62390073753433 l -10.05450299900994 9.756084827697725 a35.00979020979021,35.00979020979021 0 0,0 -0.41593872833046525,-0.4361100937533704 l 10.220948278719362 -9.581567617361854" fill="#ff860c" stroke="none" /><path d="M 84.67929136418377 114.36230785411682 l -18.79809625025924 17.622164342084197 a46.76643356643356,46.76643356643356 0 0,0 -0.545505042253662,-0.5920379848120367 l 19.098647700508632 -17.29597510247082" fill="#daff1c" stroke="none" /><path d="M 84.4343377721795 114.09645910891817 l -18.781425413348256 17.00869461713423 a46.33846153846154,46.33846153846154 0 0,0 -0.5303351976990616,-0.5958372166597143 l 19.07141946069565 -16.682883230733648" fill="#dfff1b" stroke="none" /><path d="M 83.95833913139862 113.55231037782056 l -19.355762234861896 16.35212834598569 a46.33846153846154,46.33846153846154 0 0,0 -0.5095112441909658,-0.6137391161709534 l 19.634369478946397 -16.016527972700978" fill="#dfff1b" stroke="none" /><path d="M 83.72743513129214 113.27417163493432 l -20.317134438472603 16.573486223117804 a47.219580419580424,47.219580419580424 0 0,0 -0.5083572063405785,-0.6342537784036496 l 20.599409556868043 -16.221304611135896" fill="#d4ff1c" stroke="none" /><path d="M 83.50135304334701 112.99209946851258 l -20.500516568116872 16.143429889046903 a47.09370629370629,47.09370629370629 0 0,0 -0.49603841829058937,-0.6411965222922781 l 20.77536180362553 -15.788155372641373" fill="#d6ff1c" stroke="none" /><line stroke="#e1ed5e" stroke-width="0.3" x1="26.63291911575756" x2="22.317208475507996" y1="142.92168965132927" y2="145.44649492493687" /><path d="M 25.769776987707644 143.4266507060508 a86.0,86.0 0 0,1 -11.730757126820373,-40.83630448921669" fill="none" id="id33" stroke="none" /><text fill="#e1ed5e" style="font-size:6.75px; font-family:Arial;" text-anchor="middle"><textPath startOffset="21.46611528233685" xlink:href="#id33">September</textPath></text><line stroke="#e1ed5e" stroke-width="0.3" x1="15.007084014347285" x2="10.007500721073583" y1="101.09737516637583" y2="101.16192664675087" /><path d="M 14.007167355692545 101.11028546245083 a86.0,86.0 0 0,1 10.666146001902534,-42.60595125391555" fill="none" id="id34" stroke="none" /><text fill="#e1ed5e" style="font-size:6.75px; font-family:Arial;" text-anchor="middle"><textPath startOffset="22.20632615414155" xlink:href="#id34">October</textPath></text><line stroke="#e1ed5e" stroke-width="0.3" x1="26.266209847984243" x2="21.928928074336255" y1="57.711370442889674" y2="55.22380399835377" /><path d="M 25.398753493254645 57.213857153982495 a86.0,86.0 0 0,1 29.58750427330803,-30.492523968695096" fill="none" id="id35" stroke="none" /><text fill="#e1ed5e" style="font-size:6.75px; font-family:Arial;" text-anchor="middle"><textPath startOffset="21.46611528233685" xlink:href="#id35">November</textPath></text><line stroke="#e1ed5e" stroke-width="0.3" x1="56.76296977257108" x2="54.21961505331056" y1="26.818313649435495" y2="22.513508569990535" /><path d="M 56.25429882871898 25.957352633546506 a86.0,86.0 0 0,1 42.26535254187918,-11.944610805530505" fill="none" id="id36" stroke="none" /><text fill="#e1ed5e" style="font-size:6.75px; font-family:Arial;" text-anchor="middle"><textPath startOffset="22.20632615414155" xlink:href="#id36">December</textPath></text></svg>