<?xml version="1.0" encoding="utf-8" ?>
<svg baseProfile="full" height="200mm" version="1.1" viewBox="0,0,200,200" width="200mm" xmlns="http://www.w3.org/2000/svg" xmlns:ev="http://www.w3.org/2001/xml-events" xmlns:xlink="http://www.w3.org/1999/xlink"><defs /><rect fill="#1a1a1a" height="200" width="200" x="0" y="0" /><text alignment-baseline="middle" fill="#e1ed5e" style="dominant-baseline: central; font-size:9.0px; font-family:Arial;" text-anchor="middle" x="100.0" y="100.0">2022</text><line stroke="#e1ed5e" stroke-width="0.3" x1="100.0" x2="100.0" y1="15.0" y2="10.0" /><path d="M 100.0 14.0 a86.0,86.0 0 0,1 42.46469731375804,11.215312516191453" fill="none" id="id13" stroke="none" /><text fill="#e1ed5e" style="font-size:6.75px; font-family:Arial;" text-anchor="middle"><textPath startOffset="22.20632615414155" xlink:href="#id13">January</textPath></text><line stroke="#e1ed5e" stroke-width="0.3" x1="143.23703022742887" x2="145.7803849466894" y1="26.81831364943548" y2="22.513508569990506" /><path d="M 143.74570117128098 25.957352633546492 a86.0,86.0 0 0,1 28.547481713284135,27.462654790039103" fill="none" id="id14" stroke="none" /><text fill="#e1ed5e" style="font-size:6.75px; font-family:Arial;" text-anchor="middle"><textPath startOffset="19.985693538727396" xlink:href="#id14">February</textPath></text><line stroke="#e1ed5e" stroke-width="0.3" x1="172.23445277983987" x2="176.4835382374775" y1="55.19839476539836" y2="52.563006222186495" /><path d="M 173.08426987136738 54.67131705675599 a86.0,86.0 0 0,1 12.851231095245387,41.99856678651699" fill="none" id="id15" stroke="none" /><text fill="#e1ed5e" style="font-size:6.75px; font-family:Arial;" text-anchor="middle"><textPath startOffset="22.20632615414155" xlink:href="#id15">March</textPath></text><line stroke="#e1ed5e" stroke-width="0.3" x1="184.98032266829074" x2="189.97916517819016" y1="98.17113171792111" y2="98.06355123074" /><path d="M 185.9800911702706 98.14961562048488 a86.0,86.0 0 0,1 -9.607161424134198,41.387399972396054" fill="none" id="id16" stroke="none" /><text fill="#e1ed5e" style="font-size:6.75px; font-family:Arial;" text-anchor="middle"><textPath startOffset="21.466115282336823" xlink:href="#id16">April</textPath></text><line stroke="#e1ed5e" stroke-width="0.3" x1="174.80103733775053" x2="179.2010983576182" y1="140.37084112569926" y2="142.7455964860345" /><path d="M 175.68104954172406 140.8457921977663 a86.0,86.0 0 0,1 -30.038265399797805,32.042727171017184" fill="none" id="id17" stroke="none" /><text fill="#e1ed5e" style="font-size:6.75px; font-family:Arial;" text-anchor="middle"><textPath startOffset="22.206326154141568" xlink:href="#id17">May</textPath></text><line stroke="#e1ed5e" stroke-width="0.3" x1="143.8653032363475" x2="146.44561519142675" y1="172.8068346515853" y2="177.08958963109032" /><path d="M 144.38136562736335 173.6633856474863 a86.0,86.0 0 0,1 -40.68145358897372,12.25698825130547" fill="none" id="id18" stroke="none" /><text fill="#e1ed5e" style="font-size:6.75px; font-family:Arial;" text-anchor="middle"><textPath startOffset="21.466115282336833" xlink:href="#id18">June</textPath></text><line stroke="#e1ed5e" stroke-width="0.3" x1="102.19456741930631" x2="102.32365962044197" y1="184.97166512339345" y2="189.96999836594603" /><path d="M 102.22038585953345 185.97133177190398 a86.0,86.0 0 0,1 -42.740103519485714,-10.115201625700543" fill="none" id="id19" stroke="none" /><text fill="#e1ed5e" style="font-size:6.75px; font-family:Arial;" text-anchor="middle"><textPath startOffset="22.20632615414155" xlink:href="#id19">July</textPath></text><path d="M 92.7421414339146 119.70592522655815 l -5.515707360958125 14.975783261265917 a36.95923281301893,36.95923281301893 0 0,0 -0.5950960586635903,-0.225014409040991 l 5.772673640381997 -14.878620602118293" fill="#ff0200" stroke="none" /><path d="M 91.40352486487194 119.15986991738527 l -6.538360218809409 14.572732346247742 a36.97230986383261,36.97230986383261 0 0,0 -0.5784089076510922,-0.2655191603371903 l 6.788237122227921 -14.458026115576477" fill="#ff0300" stroke="none" /><path d="M 91.07499286063937 119.00905698771935 l -6.893834392018597 14.682934005044265 a37.2207738292926,37.2207738292926 0 0,0 -0.5776085084854561,-0.2772871852842778 l 7.145555568504295 -14.562092543260425" fill="#ff0701" stroke="none" /><path d="M 90.7491055286396 118.85261126421891 l -6.978495659211625 14.22163729998845 a36.84153935569578,36.84153935569578 0 0,0 -0.5669142608449943,-0.28426257933468124 l 7.22226382773938 -14.099406879744466" fill="#ff0000" stroke="none" /><path d="M 90.10565033884886 118.52300852407294 l -17.329488452935287 32.44217895309336 a57.78051311856526,57.78051311856526 0 0,0 -0.8732484182074938,-0.476164663870724 l 17.885359683011423 -32.139073637462864" fill="#9dff22" stroke="none" /><line stroke="#e1ed5e" stroke-width="0.3" x1="58.666819895761336" x2="56.23545636021788" y1="174.27360380694188" y2="178.64263932499728" /><path d="M 58.180547188652646 175.14741091055294 a86.0,86.0 0 0,1 -31.652253787137756,-30.449443065178592" fill="none" id="id20" stroke="none" /><text fill="#e1ed5e" style="font-size:6.75px; font-family:Arial;" text-anchor="middle"><textPath startOffset="22.20632615414155" xlink:href="#id20">August</textPath></text><path d="M 88.24862548938628 117.40417183066458 l -14.790691315708507 21.90549989879146 a47.43133510461641,47.43133510461641 0 0,0 -0.672718886383548,-0.4627021842329141 l 15.165567086714947 -21.64765692519345" fill="#ffbf11" stroke="none" /><path d="M 86.51685102203217 116.09983520530335 l -11.247525554769416 13.430342436705637 a38.51801727000996,38.51801727000996 0 0,0 -0.5046493487990903,-0.4300731231804034 l 11.477040380145562 -13.234744923302282" fill="#ff2003" stroke="none" /><path d="M 86.24171649860922 115.8653595955263 l -10.539754460775661 12.153914007648904 a37.08738791099303,37.08738791099303 0 0,0 -0.4787057192378302,-0.42240213906779567 l 10.747402532920079 -11.97068872680882" fill="#ff0500" stroke="none" /><path d="M 85.97065885151581 115.62618273729859 l -10.595390824195633 11.801374807245757 a36.85984722683494,36.85984722683494 0 0,0 -0.46847189673452705,-0.4279379703055243 l 10.796962270397016 -11.617244070353655" fill="#ff0000" stroke="none" /><path d="M 85.70375840098266 115.38237550388516 l -18.03114065176626 19.401027490183296 a47.48625871803388,47.48625871803388 0 0,0 -0.5939494535273464,-0.5616162807657765 l 18.362425939684424 -19.08777657267159" fill="#ffc011" stroke="none" /><path d="M 85.18274418774928 114.88116024355367 l -18.581237392920027 18.66137526889013 a47.33456492859515,47.33456492859515 0 0,0 -0.5724312629778239,-0.5798698471985972 l 18.899709280953385 -18.338764927710866" fill="#ffbd11" stroke="none" /><path d="M 84.67929136418377 114.36230785411682 l -13.606605772418497 12.755432245230875 a39.65048987047493,39.65048987047493 0 0,0 -0.46250142469055733,-0.5019539513608509 l 13.824153605104787 -12.519327039068681" fill="#ff3505" stroke="none" /><path d="M 84.19399662182784 113.82643327865904 l -19.68532469881954 17.219901957811814 a47.15410162736632,47.15410162736632 0 0,0 -0.5291532025214045,-0.6155247202155076 l 19.978820410911727 -16.878500138434777" fill="#ffba11" stroke="none" /><path d="M 83.72743513129214 113.27417163493432 l -20.26639596733791 16.532096855198844 a47.15410162736632,47.15410162736632 0 0,0 -0.5076522738615361,-0.6333742667477206 l 20.547966153254308 -16.180794754872863" fill="#ffba11" stroke="none" /><path d="M 83.06392112726016 112.41649034213515 l -21.092758476510923 15.463911917305476 a47.15410162736632,47.15410162736632 0 0,0 -0.47428091124162003,-0.6587347039338555 l 21.35581918012815 -15.09854360792048" fill="#ffba11" stroke="none" /><path d="M 82.44556493220864 111.52570212397912 l -33.4502063106785 21.962376597917697 a61.01577548987048,61.01577548987048 0 0,0 -0.5688853380092713,-0.8829226778768549 l 33.82329651206482 -21.383332320119393" fill="#6fff27" stroke="none" /><line stroke="#e1ed5e" stroke-width="0.3" x1="26.63291911575756" x2="22.317208475507996" y1="142.92168965132927" y2="145.44649492493687" /><path d="M 25.769776987707644 143.4266507060508 a86.0,86.0 0 0,1 -11.730757126820373,-40.83630448921669" fill="none" id="id21" stroke="none" /><text fill="#e1ed5e" style="font-size:6.75px; font-family:Arial;" text-anchor="middle"><textPath startOffset="21.46611528233685" xlink:href="#id21">September</textPath></text><path d="M 81.51974371655577 109.97397251340807 l -25.40268041353048 13.710071566400474 a49.86628196612421,49.86628196612421 0 0,0 -0.4011801553489182,-0.7588816652311803 l 25.634913077104287 -13.270774886083167" fill="#ffe715" stroke="none" /><path d="M 81.18737489456691 109.33194174019688 l -56.437875316299255 27.995825220590643 a84.0,84.0 0 0,0 -0.6313869735411242,-1.300844176138861 l 56.9114155464551 -27.020192088486496" fill="#4dd2ff" stroke="none" /><path d="M 81.02952815118164 109.00673069616217 l -49.41237731395558 23.45982635912515 a75.69868814347393,75.69868814347393 0 0,0 -0.5487267527315614,-1.1819086083601562 l 49.80887868352697 -22.605797683486166" fill="#3fffc2" stroke="none" /><path d="M 80.87730276802145 108.67885076344099 l -24.068496125835498 10.923505373879278 a47.43133510461641,47.43133510461641 0 0,0 -0.33102309631808313,-0.7463696946520421 l 24.25296030688486 -10.50758734273454" fill="#ffbf11" stroke="none" /><path d="M 80.45479744820244 107.68017299344265 l -51.610434801960984 20.280018408374023 a76.45192627034208,76.45192627034208 0 0,0 -0.47074625727859576,-1.2289699323369752 l 51.951875338833084 -19.388624909203887" fill="#41ffcc" stroke="none" /><path d="M 80.0844068197444 106.66101706037122 l -17.610517051620903 5.890055769923077 a39.569412155430086,39.569412155430086 0 0,0 -0.21048618859492177,-0.6478098774413591 l 17.709295491232073 -5.586046992503914" fill="#ff3404" stroke="none" /><path d="M 79.97269907076064 106.31721596034903 l -43.13585298948838 13.606351646248266 a66.23090335436731,66.23090335436731 0 0,0 -0.33359316226790414,-1.0902017558627086 l 43.36367292426242 -12.86182291783351" fill="#30ff36" stroke="none" /><path d="M 79.76711848015287 105.62410040840567 l -51.516235859152424 14.319882358366684 a74.46944536698771,74.46944536698771 0 0,0 -0.33267247255420906,-1.2379980275716318 l 51.75509640804841 -13.430993397619513" fill="#3dffb1" stroke="none" /><path d="M 79.4281124754447 104.21870165774334 l -24.980393145684246 5.122759194993055 a46.50024908668216,46.50024908668216 0 0,0 -0.1540488307432706,-0.7854916691153031 l 25.064871909403184 -4.692003798809797" fill="#ffaf10" stroke="none" /><path d="M 79.35854240842038 103.8639653848113 l -28.612515318118717 5.356102798025953 a50.109515111258716,50.109515111258716 0 0,0 -0.15141080983178806,-0.8491922303784599 l 28.700472570289694 -4.862791816914279" fill="#ffeb16" stroke="none" /><path d="M 79.29508885075956 103.50808413554451 l -52.8264044092502 8.950507921051747 a74.57929259382266,74.57929259382266 0 0,0 -0.20355972440256648,-1.2675665981677326 l 52.97264588801406 -8.0398620931908" fill="#3effb2" stroke="none" /><path d="M 79.18660465613746 102.79330883721812 l -43.512162185579136 5.839648224204179 a64.90227499169711,64.90227499169711 0 0,0 -0.13907163909868583,-1.1085377974227657 l 43.606235333924666 -5.0897926724940055" fill="#3bff2e" stroke="none" /><path d="M 79.10278846688536 102.07522291339032 l -56.78111059672395 5.638716992042072 a78.0604035204251,78.0604035204251 0 0,0 -0.12127391331563231,-1.3382475278458124 l 56.86975910631666 -4.660488075647693" fill="#43ffe2" stroke="none" /><path d="M 79.04373962182676 101.35467743843564 l -59.588058040610235 3.8519562350868632 a80.71242942544005,80.71242942544005 0 0,0 -0.07769012987717676,-1.3872094582343428 l 59.64553452137494 -2.825675060517083" fill="#48faff" stroke="none" /><path d="M 79.0095281055655 100.63252640178507 l -43.71243115412313 1.3172294043816317 a64.73227333111923,64.73227333111923 0 0,0 -0.023975407820305192,-1.1140429918535015 l 43.72862862462844 -0.5645965967380013" fill="#3eff2e" stroke="none" /><line stroke="#e1ed5e" stroke-width="0.3" x1="15.007084014347285" x2="10.007500721073583" y1="101.09737516637583" y2="101.16192664675087" /><path d="M 14.007167355692545 101.11028546245083 a86.0,86.0 0 0,1 10.666146001902534,-42.60595125391555" fill="none" id="id22" stroke="none" /><text fill="#e1ed5e" style="font-size:6.75px; font-family:Arial;" text-anchor="middle"><textPath startOffset="22.20632615414155" xlink:href="#id22">October</textPath></text><path d="M 79.01574976396665 99.18683210126434 l -52.57474618045702 -2.037342073090146 a73.61420624377283,73.61420624377283 0 0,0 0.05996540245647602,-1.2657748699709288 l 52.531887169767046 2.942028049684084" fill="#3cffa5" stroke="none" /><path d="M 79.03285615573316 98.82574320788736 l -58.52225099973403 -3.277516062110156 a79.61395715709067,79.61395715709067 0 0,0 0.08840716327158685,-1.367619685874739 l 58.45716324545803 4.284394812237907" fill="#46fff6" stroke="none" /><path d="M 79.08570108090925 98.10471618934814 l -58.90351491485202 -5.337921134267814 a80.1448854201262,80.1448854201262 0 0,0 0.13633360328930247,-1.3728607797385304 l 58.802904185880486 6.351057444710775" fill="#47fffd" stroke="none" /><path d="M 79.12142395522702 97.74499172005258 l -31.362068956659797 -3.3872868064321513 a52.54446197276653,52.54446197276653 0 0,0 0.10486285013785673,-0.8984008613177623 l 31.299115753518354 3.9266314060747756" fill="#ecff1a" stroke="none" /><path d="M 79.21141760316559 97.0276538004421 l -35.211481309815845 -5.034528601044605 a56.5695782132182,56.5695782132182 0 0,0 0.1461222013662636,-0.9627627364290074 l 35.11960321501028 5.639890449865705" fill="#afff20" stroke="none" /><path d="M 79.32604984820605 96.31383870115002 l -33.665546940556176 -6.002560484365268 a55.196487877781465,55.196487877781465 0 0,0 0.17482640161470156,-0.9339296280974815 l 33.55723481503161 6.5811681899253225" fill="#c3ff1e" stroke="none" /><path d="M 79.3925641242962 95.95851677861259 l -30.86238995416866 -6.052661375438013 a52.45030720690801,52.45030720690801 0 0,0 0.1813799161352616,-0.8844728868416314 l 30.753630742118403 6.583009918443047" fill="#edff19" stroke="none" /><path d="M 79.54389044137918 95.25157060432595 l -25.616844272492425 -5.946378807726158 a47.29794918631684,47.29794918631684 0 0,0 0.1909197479014454,-0.7914856122045312 l 25.510691724330165 6.386449651590087" fill="#ffbd11" stroke="none" /><path d="M 79.62865764111835 94.90015583598534 l -28.047806764044747 -7.021601282777563 a49.91335934905347,49.91335934905347 0 0,0 0.21582457702712113,-0.831660135671326 l 27.922785855147318 7.503357843997753" fill="#ffe815" stroke="none" /><path d="M 79.91906864156998 93.8553929516997 l -27.89805579167472 -8.536585638964205 a50.17490036532713,50.17490036532713 0 0,0 0.2598212032002891,-0.8237042166913221 l 27.746979104706227 9.015540022081941" fill="#ffec16" stroke="none" /><path d="M 80.02781315780177 93.51064311812611 l -27.47336478812015 -8.926637341451817 a49.8872052474261,49.8872052474261 0 0,0 0.27239056951585305,-0.8144131323263017 l 27.315636924832525 9.398223576700442" fill="#ffe815" stroke="none" /><path d="M 80.2630227832202 92.82701384747504 l -33.07385774474083 -12.019992778423696 a56.19034373962139,56.19034373962139 0 0,0 0.3382000771049733,-0.9062080641418074 l 32.86205307913423 12.587523979594843" fill="#b4ff20" stroke="none" /><path d="M 80.38941819471856 92.48833698450439 l -26.975947696695464 -10.332902441815312 a49.8872052474261,49.8872052474261 0 0,0 0.3140671577183656,-0.7992666594507527 l 26.79408698909541 10.795718106161829" fill="#ffe815" stroke="none" /><path d="M 80.52162464483688 92.15188598940014 l -24.36818504350053 -9.8182877660838 a47.27179508468947,47.27179508468947 0 0,0 0.31059440684031325,-0.7521289922911866 l 24.195568949774017 10.2362913288283" fill="#ffbc11" stroke="none" /><path d="M 80.803312248108 91.48605970444005 l -26.43051101342986 -11.72221977342434 a49.91335934905347,49.91335934905347 0 0,0 0.3550923923487724,-0.7823990172602505 l 26.224816304117734 12.175440799526662" fill="#ffe815" stroke="none" /><path d="M 80.95270993114464 91.15688171328213 l -24.16099086905827 -11.21726499712158 a47.637952507472605,47.637952507472605 0 0,0 0.35170829516378166,-0.7407873664129193 l 23.964324380052737 11.631494779175032" fill="#ffc212" stroke="none" /><path d="M 81.26839172434947 90.50648371742162 l -38.10787377732704 -19.313756452497238 a63.72272500830289,63.72272500830289 0 0,0 0.5042912280815255,-0.9741301399794626 l 37.7697731160854 19.966859314737036" fill="#4bff2c" stroke="none" /><path d="M 81.6062741919709 89.86733742301443 l -23.034155554599725 -12.68896407484099 a47.29794918631684,47.29794918631684 0 0,0 0.39897477528071074,-0.7097316064226226 l 22.81232313802658 13.083579191198398" fill="#ffbd11" stroke="none" /><line stroke="#e1ed5e" stroke-width="0.3" x1="26.266209847984243" x2="21.928928074336255" y1="57.711370442889674" y2="55.22380399835377" /><path d="M 25.398753493254645 57.213857153982495 a86.0,86.0 0 0,1 29.58750427330803,-30.492523968695096" fill="none" id="id23" stroke="none" /><text fill="#e1ed5e" style="font-size:6.75px; font-family:Arial;" text-anchor="middle"><textPath startOffset="21.46611528233685" xlink:href="#id23">November</textPath></text><path d="M 81.96595687620814 89.24020034530311 l -22.651111537293374 -13.514519202625976 a47.37641149119894,47.37641149119894 0 0,0 0.4238704406232143,-0.6967315551564245 l 22.41512529838394 13.902418530989475" fill="#ffbe11" stroke="none" /><path d="M 82.15384107792192 88.93136811851018 l -24.482162137996934 -15.184446219023208 a49.808742942544,49.808742942544 0 0,0 0.45817498105610316,-0.7247227890710612 l 24.217159560694867 15.603616655808484" fill="#ffe615" stroke="none" /><path d="M 82.34701348167596 88.62581576622439 l -24.23914517990567 -15.617782444874132 a49.83489704417137,49.83489704417137 0 0,0 0.4708291071502493,-0.7171050319181593 l 23.9667194373975 16.032705540769957" fill="#ffe715" stroke="none" /><path d="M 82.7489923806493 88.02491185347247 l -30.777235654333964 -21.364555508843416 a58.46575058120226,58.46575058120226 0 0,0 0.5810030628567134,-0.821787629037256 l 30.404919971673372 21.89116963821246" fill="#93ff23" stroke="none" /><path d="M 82.95767976084542 87.72973835380427 l -21.384263086534673 -15.396407267364083 a47.35025738957157,47.35025738957157 0 0,0 0.48192953863114535,-0.6573513490895738 l 21.116070935389896 15.76222106012516" fill="#ffbe11" stroke="none" /><path d="M 83.17141714833178 87.43820079747577 l -21.074153176709228 -15.730931291271318 a47.29794918631684,47.29794918631684 0 0,0 0.49262854595738226,-0.6482414212108433 l 20.800248690527734 16.091357488363187" fill="#ffbd11" stroke="none" /><path d="M 83.39014120810768 87.1503855733568 l -21.23466462538709 -16.427427609950083 a47.84718532049153,47.84718532049153 0 0,0 0.5095632262853325,-0.6470935504265561 l 20.948747318507785 16.79051355432969" fill="#ffc612" stroke="none" /><path d="M 83.84228863543731 86.58626213691792 l -20.23403202059256 -16.79779984390032 a47.29794918631684,47.29794918631684 0 0,0 0.525433788047287,-0.621947874699916 l 19.94188761905815 17.143606668229353" fill="#ffbd11" stroke="none" /><path d="M 84.07557802195018 86.31012108654704 l -26.5660452170347 -22.838250752951982 a56.033419129857194,56.033419129857194 0 0,0 0.6350671268789964,-0.7259915084759315 l 26.168986226577857 23.292157817630855" fill="#b7ff1f" stroke="none" /><path d="M 84.5562425177563 85.77008943001954 l -19.33034241488075 -17.81101808721815 a47.28487213550315,47.28487213550315 0 0,0 0.5566840746830904,-0.5938317571972898 l 19.020891018227204 18.141119261293493" fill="#ffbc11" stroke="none" /><path d="M 84.80347519578584 85.50635884689758 l -19.427805602199232 -18.529212857430622 a47.84718532049153,47.84718532049153 0 0,0 0.5735641155422622,-0.5911082387754303 l 19.105977222953857 18.860885291756176" fill="#ffc612" stroke="none" /><path d="M 85.31137513191541 84.99185889309783 l -22.38234705177038 -22.869221991400053 a52.9995433410827,52.9995433410827 0 0,0 0.6574890057734013,-0.6325039026261605 l 21.985374802384552 23.251108980788523" fill="#e5ff1a" stroke="none" /><path d="M 85.83668400450813 84.49514656593479 l -40.35910037905024 -44.18188059258704 a80.84058452341415,80.84058452341415 0 0,0 1.0354870949103605,-0.9296705378131151 l 39.59260229654391 44.870050139169436" fill="#48f9ff" stroke="none" /><path d="M 87.80319425747018 82.90503203632743 l -16.54984206636447 -23.196156920152685 a49.49489372301561,49.49489372301561 0 0,0 0.6978046086190989,-0.4888567220924397 l 16.14810631816171 23.477598485009068" fill="#ffe115" stroke="none" /><path d="M 88.39885842347998 82.49532879139004 l -20.350640871631256 -30.70657098637553 a57.838052142145465,57.838052142145465 0 0,0 0.8346112839751344,-0.5428543953206563 l 19.819062561871835 31.052324305855723" fill="#9cff22" stroke="none" /><path d="M 89.00827224532344 82.1063720568725 l -15.81817679408265 -25.750689664916752 a51.22106443042179,51.22106443042179 0 0,0 0.7552373598270756,-0.45502205888731917 l 15.372577368037927 26.01915833326269" fill="#fffd17" stroke="none" /><line stroke="#e1ed5e" stroke-width="0.3" x1="56.76296977257108" x2="54.21961505331056" y1="26.818313649435495" y2="22.513508569990535" /><path d="M 56.25429882871898 25.957352633546506 a86.0,86.0 0 0,1 42.26535254187918,-11.944610805530505" fill="none" id="id24" stroke="none" /><text fill="#e1ed5e" style="font-size:6.75px; font-family:Arial;" text-anchor="middle"><textPath startOffset="22.20632615414155" xlink:href="#id24">December</textPath></text><path d="M 89.63071344664047 81.73862282372117 l -15.574592639511277 -27.428455091239126 a52.54184656260379,52.54184656260379 0 0,0 0.7903192211809181,-0.4398117909267185 l 15.100149329258313 27.69248227972603" fill="#ecff1a" stroke="none" /><path d="M 89.94658935756843 81.56283822128135 l -15.056326341984347 -27.6121143792459 a52.45030720690801,52.45030720690801 0 0,0 0.7963828697159402,-0.4254001485169067 l 14.578798425740102 27.867193254264553" fill="#edff19" stroke="none" /><path d="M 90.58718382345135 81.22770947309562 l -14.120396568398583 -28.160773754138578 a52.50261541016273,52.50261541016273 0 0,0 0.8113622503666188,-0.3981319325473328 l 13.633563051021538 28.39966084682074" fill="#edff1a" stroke="none" /><path d="M 91.23893434514133 80.91482961587045 l -13.175423586319141 -28.70144043362226 a52.581077715044835,52.581077715044835 0 0,0 0.8258180790814279,-0.370520500064621 l 12.679423388770937 28.92398126420341" fill="#ebff1a" stroke="none" /><path d="M 91.90106846888425 80.62456947434976 l -12.320879523320196 -29.475782614266556 a52.94723513782796,52.94723513782796 0 0,0 0.8439187457775194,-0.34425564594041924 l 11.811676907954295 29.683499146390552" fill="#e6ff1a" stroke="none" /><path d="M 92.57280143429618 80.3572730644239 l -14.832505272466872 -39.227556427926295 a62.9381019594819,62.9381019594819 0 0,0 1.0166531698564005,-0.3744419423471508 l 14.155069776837902 39.477061638079775" fill="#55ff2b" stroke="none" /></svg>